<svg width="20" height="20" viewBox="0 0 20 20" xmlns="http://www.w3.org/2000/svg">
<g id="google-fill 1" clip-path="url(#clip0_4_304)">
<path id="Vector" d="M2.55334 6.25834C3.24668 4.87771 4.31032 3.7171 5.62537 2.90623C6.94042 2.09536 8.45506 1.66619 10 1.66667C12.2458 1.66667 14.1325 2.49167 15.575 3.83751L13.1858 6.22751C12.3217 5.40167 11.2233 4.98084 10 4.98084C7.82917 4.98084 5.99167 6.44751 5.33751 8.41667C5.17084 8.91667 5.07584 9.45001 5.07584 10C5.07584 10.55 5.17084 11.0833 5.33751 11.5833C5.99251 13.5533 7.82917 15.0192 10 15.0192C11.1208 15.0192 12.075 14.7233 12.8217 14.2233C13.2545 13.9383 13.6251 13.5685 13.911 13.1363C14.1969 12.704 14.3922 12.2182 14.485 11.7083H10V8.48501H17.8483C17.9467 9.03001 18 9.59834 18 10.1892C18 12.7275 17.0917 14.8642 15.515 16.3142C14.1367 17.5875 12.25 18.3333 10 18.3333C8.90553 18.3338 7.8217 18.1185 6.81046 17.6999C5.79921 17.2813 4.88038 16.6674 4.10647 15.8935C3.33256 15.1196 2.71875 14.2008 2.30012 13.1896C1.88148 12.1783 1.66623 11.0945 1.66667 10C1.66667 8.65501 1.98834 7.38334 2.55334 6.25834Z" />
</g>
<defs>
<clipPath id="clip0_4_304">
<rect width="20" height="20" />
</clipPath>
</defs>
</svg>
