<svg width="20" height="20" viewBox="0 0 20 20" xmlns="http://www.w3.org/2000/svg">
<g id="twitter-fill 1" clip-path="url(#clip0_4_301)">
<path id="Vector" d="M18.4683 4.71333C17.8321 4.99474 17.1575 5.17956 16.4667 5.26167C17.1948 4.82619 17.7398 4.14085 18 3.33333C17.3167 3.74 16.5675 4.025 15.7867 4.17917C15.2622 3.61798 14.567 3.2458 13.8091 3.12049C13.0513 2.99517 12.2733 3.12374 11.5961 3.48621C10.9188 3.84868 10.3803 4.42474 10.0643 5.12483C9.7482 5.82492 9.67229 6.60982 9.84833 7.3575C8.46259 7.28805 7.10694 6.92794 5.8694 6.30055C4.63187 5.67317 3.5401 4.79254 2.665 3.71583C2.35524 4.24788 2.19246 4.85269 2.19333 5.46833C2.19333 6.67667 2.80833 7.74417 3.74333 8.36917C3.19001 8.35175 2.64886 8.20232 2.165 7.93333V7.97667C2.16517 8.78142 2.44364 9.56135 2.9532 10.1842C3.46277 10.8071 4.17207 11.2346 4.96083 11.3942C4.44718 11.5334 3.90859 11.5539 3.38583 11.4542C3.60822 12.1469 4.04167 12.7527 4.62549 13.1868C5.20931 13.6209 5.91427 13.8615 6.64166 13.875C5.91873 14.4428 5.09098 14.8625 4.20573 15.1101C3.32048 15.3578 2.3951 15.4285 1.4825 15.3183C3.07558 16.3429 4.93008 16.8868 6.82416 16.885C13.235 16.885 16.7408 11.5742 16.7408 6.96833C16.7408 6.81833 16.7367 6.66667 16.73 6.51833C17.4124 6.02514 18.0013 5.41418 18.4692 4.71417L18.4683 4.71333Z" />
</g>
<defs>
<clipPath id="clip0_4_301">
<rect width="20" height="20" />
</clipPath>
</defs>
</svg>
